<svg width="24" height="26" viewBox="0 0 24 26" fill="none" xmlns="http://www.w3.org/2000/svg">
<g id="&#240;&#159;&#166;&#134; icon &#34;Settings&#34;">
<g id="Group">
<path id="Vector" d="M12 8.3418C14.3051 8.3418 16.1738 10.2105 16.1738 12.5156C16.1738 14.8208 14.3051 16.6895 12 16.6895C9.69483 16.6895 7.82613 14.8208 7.82613 12.5156C7.82613 10.2105 9.69483 8.3418 12 8.3418ZM14.0869 12.5156C14.0869 11.3631 13.1526 10.4287 12 10.4287C10.8474 10.4287 9.91306 11.3631 9.91306 12.5156C9.91306 13.6682 10.8474 14.6026 12 14.6026C13.1526 14.6026 14.0869 13.6682 14.0869 12.5156Z" fill="#0078D4"/>
<path id="Vector_2" d="M6.53662 5.00106C7.34008 5.14698 8.11032 4.61665 8.25687 3.81655L8.7989 0.86192C8.85277 0.568311 9.0793 0.33612 9.3725 0.274013C10.2301 0.0923672 11.1094 0 12.0002 0C12.8915 0 13.7714 0.0924924 14.6294 0.274347C14.9227 0.336516 15.1493 0.568833 15.203 0.862568L15.7435 3.81667C15.7579 3.89522 15.7787 3.97259 15.8058 4.0479C16.0806 4.81378 16.927 5.21278 17.6962 4.93908L20.5333 3.92901C20.8153 3.82861 21.1302 3.90747 21.331 4.12873C22.5182 5.43715 23.4179 6.98103 23.9641 8.66297C24.0562 8.94673 23.9674 9.2578 23.7391 9.4508L21.4395 11.3948C21.3783 11.4466 21.3214 11.5032 21.2694 11.5642C20.7407 12.1841 20.8169 13.1135 21.4395 13.6399L23.7391 15.5839C23.9674 15.7769 24.0562 16.088 23.9641 16.3717C23.4179 18.0537 22.5182 19.5976 21.331 20.9061C21.1302 21.1273 20.8153 21.2062 20.5333 21.1058L17.6961 20.0955C17.6205 20.0688 17.5428 20.0479 17.4638 20.0335C16.6603 19.8877 15.89 20.4179 15.7435 21.2181L15.203 24.1721C15.1493 24.466 14.9227 24.6982 14.6294 24.7604C13.7714 24.9422 12.8915 25.0346 12.0002 25.0346C11.1094 25.0346 10.2301 24.9424 9.3725 24.7606C9.0793 24.6986 8.85277 24.4664 8.7989 24.1727L8.25691 21.2183C8.24247 21.1394 8.22164 21.0622 8.19461 20.9868C7.91975 20.2209 7.07337 19.8219 6.30413 20.0955L3.46717 21.1058C3.18502 21.2062 2.8701 21.1273 2.66934 20.9061C1.48209 19.5976 0.582415 18.0537 0.0362672 16.3717C-0.0559748 16.088 0.0329272 15.7769 0.261237 15.5839L2.56082 13.6399C2.62217 13.5881 2.67894 13.5315 2.7309 13.4705C3.25973 12.8505 3.18356 11.9212 2.56082 11.3948L0.261237 9.4508C0.0329272 9.2578 -0.0559748 8.94673 0.0362672 8.66297C0.582415 6.98103 1.48209 5.43715 2.66934 4.12873C2.8701 3.90747 3.18502 3.82861 3.46717 3.92901L6.30434 4.93912C6.37989 4.96598 6.45752 4.98673 6.53662 5.00106ZM20.3507 6.20925L18.3961 6.90511C16.5493 7.56226 14.5072 6.60762 13.8415 4.75287C13.7761 4.57061 13.7256 4.38285 13.6907 4.19228L13.3204 2.16869C12.8857 2.11441 12.445 2.08692 12.0002 2.08692C11.5557 2.08692 11.1154 2.11437 10.681 2.16856L10.3095 4.19309C9.95389 6.13316 8.09209 7.40457 6.16369 7.05443C5.97377 7.01993 5.78637 6.96993 5.60439 6.90517L3.64957 6.20925C3.1174 6.9054 2.67497 7.66488 2.33376 8.47018L3.90834 9.80114C5.4126 11.0731 5.59854 13.3241 4.31884 14.8247C4.19342 14.9719 4.05589 15.1087 3.90814 15.2336L2.33376 16.5645C2.67497 17.3698 3.1174 18.1292 3.64957 18.8254L5.6046 18.1294C7.45132 17.4723 9.4932 18.427 10.1589 20.2819C10.2243 20.4641 10.2748 20.6519 10.3097 20.8424L10.681 22.8661C11.1154 22.9204 11.5557 22.9477 12.0002 22.9477C12.445 22.9477 12.8857 22.9204 13.3204 22.8659L13.6907 20.8422C14.0461 18.9018 15.9081 17.63 17.8367 17.9802C18.0267 18.0149 18.214 18.0647 18.396 18.1296L20.3507 18.8254C20.883 18.1292 21.3254 17.3698 21.6665 16.5645L20.0921 15.2336C18.5877 13.9616 18.4017 11.7107 19.6815 10.21C19.807 10.0628 19.9444 9.92598 20.0921 9.80109L21.6665 8.47018C21.3254 7.66488 20.883 6.9054 20.3507 6.20925Z" fill="#0078D4"/>
</g>
</g>
</svg>
