<svg width="27" height="27" viewBox="0 0 27 27" fill="none" xmlns="http://www.w3.org/2000/svg">
<path d="M5.98592 19.154C5.65533 19.4846 5.65532 20.0206 5.98592 20.3512C6.31651 20.6817 6.85251 20.6817 7.1831 20.3512L18.7922 8.74207L18.3096 17.9123C18.285 18.3792 18.6435 18.7775 19.1104 18.8022C19.5773 18.8267 19.9757 18.4682 20.0003 18.0013L20.5989 6.62802C20.6114 6.38844 20.5218 6.15465 20.3521 5.98495C20.1824 5.81526 19.9486 5.72562 19.709 5.73817L8.33579 6.33678C7.86891 6.36135 7.51034 6.75976 7.53491 7.22664C7.55949 7.69352 7.95789 8.05208 8.42477 8.0275L17.595 7.54488L5.98592 19.154Z" fill="white"/>
</svg>
