<svg width="25" height="25" viewBox="0 0 25 25" fill="none" xmlns="http://www.w3.org/2000/svg">
<g id="&#240;&#159;&#166;&#134; icon &#34;Phone Desktop&#34;">
<g id="Group">
<path id="Vector" d="M8.92881 1.78569H21.4287C22.4149 1.78569 23.2144 2.58518 23.2144 3.57139V14.2855C23.2144 15.2718 22.4149 16.0712 21.4287 16.0712H12.5002V17.8569H16.0716V19.6426H12.5002V21.4283H18.7501C19.2431 21.4283 19.643 21.0285 19.643 20.5355C19.643 20.0424 19.2431 19.6426 18.7501 19.6426H17.8573V17.8569H21.4287C23.4011 17.8569 25 16.258 25 14.2855V3.57139C25 1.59896 23.4011 0 21.4287 0H8.92881C6.95638 0 5.35742 1.59896 5.35742 3.57139V7.14277H7.14311V3.57139C7.14311 2.58518 7.94261 1.78569 8.92881 1.78569Z" fill="#0078D4"/>
<path id="Vector_2" d="M4.46316 19.6426C3.97006 19.6426 3.57031 20.0424 3.57031 20.5354C3.57031 21.0285 3.97006 21.4283 4.46316 21.4283H6.24885C6.74195 21.4283 7.1417 21.0285 7.1417 20.5354C7.1417 20.0424 6.74195 19.6426 6.24885 19.6426H4.46316Z" fill="#0078D4"/>
<path id="Vector_3" d="M2.67854 8.92969C1.19922 8.92969 0 10.1289 0 11.6082V22.3224C0 23.8017 1.19922 25.0009 2.67854 25.0009H8.03562C9.51494 25.0009 10.7142 23.8017 10.7142 22.3224V11.6082C10.7142 10.1289 9.51494 8.92969 8.03562 8.92969H2.67854ZM2.67854 10.7154H8.03562C8.52872 10.7154 8.92847 11.1151 8.92847 11.6082V22.3224C8.92847 22.8154 8.52872 23.2152 8.03562 23.2152H2.67854C2.18544 23.2152 1.78569 22.8154 1.78569 22.3224V11.6082C1.78569 11.1151 2.18544 10.7154 2.67854 10.7154Z" fill="#0078D4"/>
</g>
</g>
</svg>
